<svg width="60" height="70" viewBox="0 0 60 70" fill="none" xmlns="http://www.w3.org/2000/svg">
<path d="M30.5 41.1704C33.2275 41.1704 35.4386 38.9593 35.4386 36.2318C35.4386 33.5043 33.2275 31.2932 30.5 31.2932C27.7725 31.2932 25.5614 33.5043 25.5614 36.2318C25.5614 38.9593 27.7725 41.1704 30.5 41.1704Z" fill="#61DAFB"/>
<path d="M30.5 46.3499C45.1355 46.3499 57 41.8198 57 36.2317C57 30.6436 45.1355 26.1135 30.5 26.1135C15.8645 26.1135 4 30.6436 4 36.2317C4 41.8198 15.8645 46.3499 30.5 46.3499Z" stroke="#61DAFB" stroke-width="2.40909"/>
<path d="M21.7374 41.2908C29.0552 53.9656 38.9105 61.9755 43.75 59.1814C48.5895 56.3873 46.5804 43.8474 39.2626 31.1726C31.9448 18.4979 22.0895 10.488 17.25 13.2821C12.4105 16.0761 14.4196 28.6161 21.7374 41.2908Z" stroke="#61DAFB" stroke-width="2.40909"/>
<path d="M21.7374 31.1727C14.4196 43.8474 12.4105 56.3874 17.25 59.1814C22.0895 61.9755 31.9448 53.9656 39.2626 41.2909C46.5804 28.6161 48.5895 16.0762 43.75 13.2821C38.9105 10.488 29.0552 18.4979 21.7374 31.1727Z" stroke="#61DAFB" stroke-width="2.40909"/>
</svg>
