<svg width="60" height="70" viewBox="0 0 60 70" fill="none" xmlns="http://www.w3.org/2000/svg">
<circle cx="31.5" cy="36.5" r="21.5" fill="white"/>
<path d="M31.4643 14C19.1089 14 9 24.1089 9 36.4643C9 48.8196 19.1089 58.9286 31.4643 58.9286C43.8196 58.9286 53.9286 48.8196 53.9286 36.4643C53.9286 24.1089 43.8196 14 31.4643 14ZM18.9485 48.9801C15.5788 45.6105 13.8138 41.1176 13.8138 36.7852L31.3038 54.1148C26.811 53.9543 22.3181 52.3497 18.9485 48.9801ZM35.3153 53.6334L14.2952 32.6133C16.0602 24.7508 23.1204 18.8138 31.4643 18.8138C37.4013 18.8138 42.536 21.702 45.7452 26.0344L43.3383 28.1204C40.6105 24.4298 36.2781 22.023 31.4643 22.023C25.2064 22.023 19.9112 26.0344 17.8253 31.6505L36.2781 50.1033C40.9314 48.4987 44.4615 44.4872 45.5847 39.6735H37.8827V36.4643H49.1148C49.1148 44.8082 43.1778 51.8684 35.3153 53.6334Z" fill="#663399"/>
</svg>
