<svg width="50" height="70" viewBox="0 0 50 70" fill="none" xmlns="http://www.w3.org/2000/svg">
<path d="M12.1197 40.6635L37.1401 32.2505C36.6402 29.1011 36.2839 26.9972 35.8712 25.3916C35.4264 23.6646 35.0739 23.2025 34.9355 23.0424C34.453 22.4864 33.8524 22.047 33.1781 21.7569C32.9833 21.673 32.4373 21.4781 30.671 21.5852C28.8021 21.6988 26.3488 22.0834 22.4637 22.703C18.5799 23.3225 16.1278 23.7214 14.3167 24.1938C12.6029 24.6416 12.1428 24.9979 11.9838 25.1373C11.4327 25.6239 10.9969 26.228 10.7085 26.9069C10.6251 27.1031 10.4316 27.6529 10.538 29.4328C10.6508 31.3147 11.0328 33.7865 11.648 37.6987C11.8198 38.7958 11.9749 39.7767 12.1197 40.6635V40.6635Z" fill="url(#paint0_linear_1508_407)"/>
<path fill-rule="evenodd" clip-rule="evenodd" d="M5.22115 38.7235C4.03165 31.1547 3.43562 27.3702 4.7251 24.3319C5.39729 22.7472 6.41546 21.3355 7.70396 20.2015C10.174 18.0292 13.9309 17.4303 21.4447 16.2312C28.9611 15.0309 32.718 14.432 35.7366 15.7304C37.3094 16.4075 38.7105 17.4328 39.8357 18.7301C41.9942 21.2186 42.589 25.0031 43.7785 32.5732C44.9693 40.142 45.564 43.9277 44.2745 46.9648C43.6028 48.5494 42.5851 49.9611 41.297 51.0952C38.827 53.2687 35.0688 53.8676 27.5537 55.0667C20.0398 56.2658 16.2817 56.8647 13.2656 55.5662C11.6928 54.8891 10.2918 53.8638 9.16648 52.5666C7.00796 50.0781 6.41321 46.2936 5.22243 38.7235H5.22115ZM18.4761 52.1652C20.4885 52.0426 23.0802 51.6334 26.9166 51.0216C30.7543 50.4098 33.3422 49.9916 35.2956 49.4817C37.1863 48.9874 38.0579 48.506 38.6206 48.0103C39.4484 47.2813 40.1025 46.3738 40.5343 45.3553C40.8291 44.6635 41.015 43.6799 40.897 41.7154C40.7753 39.689 40.3689 37.0778 39.7614 33.2134C39.1538 29.3489 38.7398 26.7404 38.2335 24.7746C37.7426 22.8695 37.2632 21.9918 36.7723 21.4251C36.0488 20.5912 35.1481 19.9321 34.1369 19.4968C33.4499 19.1999 32.4732 19.0128 30.5223 19.1315C28.5099 19.2541 25.9194 19.6633 22.0817 20.2751C18.2454 20.8882 15.6562 21.3051 13.704 21.8149C11.8121 22.3093 10.9418 22.792 10.379 23.2864C9.55076 24.0153 8.89622 24.9228 8.46406 25.9414C8.17053 26.6332 7.98468 27.6168 8.1026 29.5813C8.22437 31.609 8.62941 34.2189 9.23826 38.0833C9.84583 41.9478 10.2598 44.5563 10.7661 46.5221C11.2571 48.4272 11.7352 49.3049 12.2274 49.8715C12.9508 50.7055 13.8516 51.3646 14.8627 51.7999C15.5498 52.0968 16.5252 52.2839 18.4774 52.1652H18.4761Z" fill="url(#paint1_linear_1508_407)"/>
<defs>
<linearGradient id="paint0_linear_1508_407" x1="20.0604" y1="14.9999" x2="26.6594" y2="55.9443" gradientUnits="userSpaceOnUse">
<stop stop-color="#66E3FF"/>
<stop offset="1" stop-color="#7064F9"/>
</linearGradient>
<linearGradient id="paint1_linear_1508_407" x1="20.0604" y1="14.9999" x2="26.6594" y2="55.9443" gradientUnits="userSpaceOnUse">
<stop stop-color="#66E3FF"/>
<stop offset="1" stop-color="#7064F9"/>
</linearGradient>
</defs>
</svg>
