<svg width="60" height="70" viewBox="0 0 60 70" fill="none" xmlns="http://www.w3.org/2000/svg">
<path d="M47.8203 33.6688C47.8203 31.0191 46.0445 28.7898 43.6603 28.1529L49 12H22.5374L27.8895 28.2038C25.5798 28.8917 23.8785 31.0828 23.8785 33.6815C23.8785 35.5924 24.8099 37.2866 26.2255 38.3312C25.6667 39.1465 25.021 39.8981 24.2883 40.6115C22.9099 41.9363 21.3825 42.9554 19.731 43.6306C18.2408 42.5987 17.5951 40.7771 18.1787 39.1465C20.4512 38.4331 22.1028 36.2548 22.1028 33.6943C22.1028 30.5478 19.6068 28 16.552 28C13.4847 28 10.9887 30.5605 10.9887 33.707C10.9887 35.2611 11.6096 36.6879 12.6031 37.707C12.5161 37.8854 12.4292 38.0637 12.3423 38.2548C11.5103 40.0127 10.5665 42 10.2064 44.2293C9.48617 48.6879 10.6659 52.2675 13.5096 54.293C15.1115 55.4268 16.8748 56 18.7748 56C22.0407 56 25.3563 54.3185 28.5601 52.6879C30.845 51.5287 33.2044 50.3185 35.5266 49.7325C36.3834 49.5159 37.2775 49.3885 38.2212 49.2484C40.1336 48.9682 42.1081 48.6752 43.8838 47.6178C45.9576 46.3822 47.3732 44.3185 47.783 41.949C48.0935 40.1274 47.783 38.293 46.9883 36.6879C47.5223 35.8089 47.8203 34.7771 47.8203 33.6688V33.6688ZM45.3988 33.6688C45.3988 35.4395 43.9956 36.879 42.2695 36.879C40.5434 36.879 39.1402 35.4395 39.1402 33.6688C39.1402 33.0955 39.2892 32.5478 39.55 32.0764C39.6493 31.8981 39.7735 31.7197 39.8977 31.5669C40.0218 31.414 40.1709 31.2739 40.3323 31.1465L40.3447 31.1338C40.444 31.0573 40.5558 30.9809 40.6676 30.9045C40.6676 30.9045 40.68 30.9045 40.68 30.8917C40.7297 30.8662 40.7793 30.828 40.829 30.8025C40.8414 30.8025 40.8538 30.7898 40.8663 30.7898C40.9159 30.7643 40.978 30.7389 41.0401 30.7134C41.1022 30.6879 41.1643 30.6624 41.214 30.6369C41.2264 30.6369 41.2388 30.6242 41.2512 30.6242C41.3009 30.6115 41.3506 30.586 41.4002 30.5732C41.4126 30.5732 41.4375 30.5605 41.4499 30.5605C41.512 30.5478 41.5617 30.535 41.6238 30.5223H41.6362L41.8224 30.4841C41.8349 30.4841 41.8597 30.4841 41.8721 30.4713C41.9218 30.4713 41.9715 30.4586 42.0211 30.4586H42.0832C42.1453 30.4586 42.2074 30.4459 42.2819 30.4459H42.4433C42.493 30.4459 42.5303 30.4459 42.5799 30.4586H42.6048C42.7041 30.4713 42.8035 30.4841 42.9028 30.5096C44.3184 30.8153 45.3988 32.1147 45.3988 33.6688V33.6688ZM26.002 14.5478H45.5354L41.0525 28.1146C40.8663 28.1529 40.68 28.2166 40.4937 28.2803L35.7749 18.4076L31.0437 28.2166C30.8574 28.1529 30.6587 28.1146 30.46 28.0764L26.002 14.5478ZM34.8808 32.5605C34.6449 31.3631 34.0488 30.293 33.2044 29.5032L35.7749 24.1783L38.3703 29.6178C37.6003 30.4076 37.0415 31.414 36.818 32.5605H34.8808ZM28.6594 30.5478C28.7215 30.535 28.7712 30.5223 28.8333 30.5096H28.8705C28.9202 30.4968 28.9699 30.4968 29.0196 30.4841H29.0692C29.1189 30.4841 29.1562 30.4713 29.2058 30.4713H29.6901C29.7398 30.4713 29.7771 30.4841 29.8143 30.4841C29.8391 30.4841 29.8516 30.4841 29.8764 30.4968C29.9261 30.5096 29.9633 30.5096 30.013 30.5223C30.0254 30.5223 30.0378 30.5223 30.0627 30.535C30.1248 30.5478 30.1868 30.5605 30.2365 30.5732H30.2489C30.2986 30.586 30.3483 30.5987 30.398 30.6242C30.4104 30.6242 30.4228 30.6369 30.4476 30.6369C30.4849 30.6497 30.5345 30.6624 30.5718 30.6879C30.5842 30.6879 30.5966 30.7006 30.6091 30.7006C30.6587 30.7261 30.7084 30.7389 30.7581 30.7643H30.7705C30.8326 30.7898 30.8823 30.8153 30.9319 30.8535H30.9443C30.994 30.879 31.0437 30.9172 31.0934 30.9427C31.1058 30.9427 31.1058 30.9554 31.1182 30.9554C31.1679 30.9809 31.2051 31.0191 31.2548 31.0446L31.2672 31.0573C31.4162 31.172 31.5528 31.2994 31.6894 31.4268L31.7018 31.4395C31.826 31.5796 31.9502 31.7325 32.0495 31.8981C32.3724 32.4076 32.5587 33.0064 32.5587 33.6561C32.5587 35.4268 31.1554 36.8662 29.4294 36.8662C27.7033 36.8662 26.3 35.4268 26.3 33.6561C26.2876 32.1656 27.2935 30.9045 28.6594 30.5478V30.5478ZM16.4402 30.4586C18.1663 30.4586 19.5695 31.8981 19.5695 33.6688C19.5695 35.4395 18.1663 36.879 16.4402 36.879C14.7141 36.879 13.3109 35.4395 13.3109 33.6688C13.3109 31.8981 14.7141 30.4586 16.4402 30.4586ZM45.3243 41.5032C45.0511 43.1338 44.0701 44.5605 42.6296 45.414C41.276 46.2166 39.612 46.4713 37.8611 46.7261C36.9049 46.8662 35.8991 47.0191 34.9305 47.2611C32.3476 47.9108 29.864 49.1847 27.4549 50.4076C24.3753 51.9745 21.4695 53.4522 18.7748 53.4522C17.3715 53.4522 16.1173 53.0446 14.9252 52.1911C12.1933 50.2548 12.3299 46.6242 12.6527 44.6369C12.9508 42.7771 13.7828 41.0318 14.5775 39.3631C14.6272 39.2611 14.6644 39.172 14.7141 39.0701C14.9873 39.172 15.2729 39.2484 15.571 39.2994C15.0991 42 16.4402 44.7898 19.048 46.1656L19.5199 46.4204L20.029 46.2293C22.2021 45.4395 24.2138 44.1529 25.9896 42.4331C26.9954 41.465 27.8523 40.4204 28.5725 39.2866C28.8581 39.3376 29.1437 39.3503 29.4294 39.3503C32.0123 39.3503 34.1854 37.5287 34.8063 35.0828H36.8925C37.5134 37.5414 39.6866 39.3503 42.2695 39.3503C43.3002 39.3503 44.2564 39.0573 45.0759 38.5605C45.3988 39.5159 45.4981 40.5096 45.3243 41.5032V41.5032Z" fill="#15C213"/>
</svg>
