<svg width="80" height="70" viewBox="0 0 80 70" fill="none" xmlns="http://www.w3.org/2000/svg">
<path d="M50.875 29H62.25V31.0764H57.7377V42H55.4813V31.0764H50.875V29Z" fill="#F4F4F4"/>
<path d="M32.1875 29V31.0764H22.4184V34.4167H30.2747V36.4931H22.4184V39.9236H32.1875V42H20.001V31.0764H20V29H32.1875Z" fill="#F4F4F4"/>
<path d="M37.6377 29H34.625L45.416 42H48.4375L43.0413 35.5045L48.4289 29.0099L45.416 29.0144L41.5329 33.6888L37.6377 29Z" fill="#F4F4F4"/>
<path d="M40.3125 38.1784L38.9088 36.3125L34.625 42H37.4361L40.3125 38.1784Z" fill="#F4F4F4"/>
<path fill-rule="evenodd" clip-rule="evenodd" d="M20 42L9.73396 29H7V41.9946H9.18717V31.7776L17.2524 42H20Z" fill="#F4F4F4"/>
<path d="M63.0636 42C62.8388 42 62.6475 41.9603 62.4873 41.881C62.3272 41.8016 62.248 41.7055 62.25 41.5917C62.248 41.481 62.3272 41.3859 62.4873 41.3066C62.6475 41.2272 62.8388 41.1875 63.0636 41.1875C63.28 41.1875 63.4692 41.2272 63.6294 41.3066C63.7918 41.3859 63.8727 41.481 63.875 41.5917C63.8727 41.6669 63.8353 41.7358 63.7604 41.7974C63.6835 41.8601 63.5858 41.9092 63.4629 41.9447C63.3422 41.9812 63.2091 42 63.0636 42Z" fill="#F4F4F4"/>
<path d="M67.0138 36.3125H67.9375V40.2569C67.9361 40.6194 67.8654 40.9295 67.7271 41.1902C67.5873 41.4508 67.3937 41.6498 67.1452 41.7902C66.898 41.929 66.6084 42 66.2793 42C65.9784 42 65.7088 41.9398 65.4686 41.8226C65.2285 41.7054 65.0379 41.5295 64.8981 41.2981C64.7567 41.0667 64.6875 40.7783 64.6875 40.4327H65.6127C65.6141 40.5839 65.6452 40.715 65.7045 40.8245C65.7637 40.9341 65.8457 41.0174 65.9503 41.076C66.0561 41.1346 66.1777 41.1639 66.3146 41.1639C66.463 41.1639 66.5901 41.13 66.6931 41.0606C66.7962 40.9927 66.8753 40.8909 66.9305 40.7551C66.9841 40.6209 67.0124 40.4543 67.0138 40.2569V36.3125Z" fill="#F4F4F4"/>
<path d="M71.8168 37.9073C71.7936 37.6717 71.6917 37.4877 71.5141 37.357C71.335 37.2247 71.1037 37.1593 70.8198 37.1593C70.6204 37.1593 70.4487 37.1913 70.3061 37.2536C70.1634 37.3174 70.0528 37.4026 69.977 37.5105C69.9014 37.6185 69.8636 37.7416 69.8606 37.88C69.8606 37.9955 69.8867 38.0958 69.9377 38.1795C69.9887 38.2646 70.057 38.336 70.1459 38.3938C70.2332 38.4531 70.3307 38.5018 70.4371 38.5413C70.5447 38.5808 70.6525 38.6143 70.7601 38.6416L71.2564 38.7709C71.4559 38.8195 71.6496 38.8849 71.8344 38.9685C72.0192 39.0506 72.1866 39.1555 72.3335 39.2817C72.4806 39.4079 72.5971 39.5599 72.6829 39.7378C72.7688 39.9156 72.8125 40.1239 72.8125 40.3641C72.8125 40.688 72.7339 40.9723 72.5751 41.2186C72.4165 41.4633 72.188 41.6549 71.8882 41.7932C71.5897 41.9301 71.2288 42 70.8038 42C70.3933 42 70.0353 41.9331 69.734 41.7993C69.4313 41.6671 69.1954 41.4725 69.0251 41.217C68.8548 40.9616 68.7631 40.65 68.75 40.2836H69.6933C69.7064 40.4751 69.7646 40.6348 69.8635 40.764C69.9639 40.8917 70.0949 40.986 70.2551 41.0498C70.4167 41.1121 70.5971 41.1441 70.7966 41.1441C71.0047 41.1441 71.1881 41.1106 71.3467 41.0452C71.5039 40.9799 71.6276 40.8887 71.7165 40.7701C71.8067 40.653 71.8519 40.5147 71.8533 40.3565C71.8519 40.2121 71.811 40.092 71.7324 39.9977C71.6524 39.9035 71.5418 39.8244 71.4005 39.7606C71.258 39.6967 71.092 39.639 70.9028 39.5888L70.3002 39.4276C69.865 39.3106 69.52 39.1327 69.2681 38.894C69.015 38.6553 68.8897 38.3391 68.8897 37.9423C68.8897 37.6169 68.9741 37.3311 69.1445 37.0864C69.3132 36.8416 69.5448 36.6515 69.8374 36.5162C70.1314 36.3794 70.4633 36.3125 70.8329 36.3125C71.2085 36.3125 71.5373 36.3794 71.8213 36.5162C72.105 36.6515 72.3278 36.8401 72.4893 37.0803C72.6509 37.3205 72.7353 37.5956 72.7397 37.9073H71.8168Z" fill="#F4F4F4"/>
</svg>
