<svg width="60" height="70" viewBox="0 0 60 70" fill="none" xmlns="http://www.w3.org/2000/svg">
<g clip-path="url(#clip0_1508_385)">
<path d="M29.5 11L50 22.8355V46.5066L29.5 58.3422L9 46.5066V22.8355L29.5 11Z" fill="#673AB8"/>
<path d="M14.5838 46.3109C17.309 49.7991 25.9701 47.1413 34.1469 40.7529C42.3237 34.3646 46.9979 26.6039 44.2726 23.1155C41.5473 19.6273 32.8863 22.2853 24.7095 28.6736C16.5328 35.0622 11.8586 42.8227 14.5838 46.3109ZM15.7482 45.4012C14.8442 44.2446 15.2392 41.9736 16.961 39.1146C18.7743 36.1042 21.8524 32.7808 25.6191 29.8379C29.386 26.895 33.3551 24.7123 36.7149 23.6812C39.9055 22.7021 42.2045 22.8684 43.1083 24.0252C44.0122 25.182 43.6173 27.453 41.8954 30.312C40.0821 33.3224 37.0041 36.6457 33.2374 39.5887C29.4705 42.5316 25.5012 44.7143 22.1416 45.7453C18.951 46.7245 16.6519 46.5582 15.7482 45.4014V45.4012Z" fill="white"/>
<path d="M44.2726 46.3109C46.998 42.8227 42.3237 35.062 34.1469 28.6736C25.9701 22.2853 17.3089 19.6273 14.5838 23.1155C11.8584 26.6037 16.5328 34.3646 24.7095 40.7529C32.8863 47.1413 41.5473 49.7993 44.2726 46.3109ZM43.1083 45.4012C42.2045 46.5582 39.9055 46.7245 36.7149 45.7453C33.3551 44.7143 29.386 42.5316 25.6192 39.5887C21.8524 36.6457 18.7742 33.3224 16.9612 30.312C15.2392 27.453 14.8442 25.1822 15.748 24.0252C16.6519 22.8684 18.951 22.7021 22.1414 23.6812C25.5012 24.7123 29.4705 26.895 33.2372 29.8379C37.0041 32.7808 40.0822 36.1042 41.8953 39.1146C43.6173 41.9734 44.0122 44.2444 43.1083 45.4014V45.4012Z" fill="white"/>
<path d="M29.4282 37.853C31.1623 37.853 32.5678 36.4473 32.5678 34.7133C32.5678 32.9794 31.1623 31.5737 29.4282 31.5737C27.6942 31.5737 26.2885 32.9794 26.2885 34.7133C26.2885 36.4473 27.6942 37.853 29.4282 37.853V37.853Z" fill="white"/>
</g>
<defs>
<clipPath id="clip0_1508_385">
<rect width="41" height="47.4062" fill="white" transform="translate(9 11)"/>
</clipPath>
</defs>
</svg>
