<svg fill="none" viewBox="0 0 60 70" xmlns="http://www.w3.org/2000/svg">
<path d="m57.988 22.719s-17.88-13.059-31.711-10.045l-1.012 0.3348c-2.0241 0.6697-3.7109 1.6742-4.7229 3.0136l-0.6747 1.0045-5.0603 8.7057 8.7711 1.6742c3.7108 2.3438 8.4337 3.3483 12.819 2.3438l15.518 3.0136 6.0722-10.045z" fill="#76B3E1"/>
<path d="m57.988 22.719s-17.88-13.059-31.711-10.045l-1.012 0.3348c-2.0241 0.6697-3.7109 1.6742-4.7229 3.0136l-0.6747 1.0045-5.0603 8.7057 8.7711 1.6742c3.7108 2.3438 8.4337 3.3483 12.819 2.3438l15.518 3.0136 6.0722-10.045z" fill="url(#d)" opacity=".3"/>
<path d="m20.542 22.719-1.3494 0.3348c-5.735 1.6742-7.4217 7.0315-4.3856 11.719 3.3735 4.3529 10.458 6.6968 16.193 5.0226l20.916-7.0316s-17.88-13.059-31.374-10.045z" fill="#518AC8"/>
<path d="m20.542 22.719-1.3494 0.3348c-5.735 1.6742-7.4217 7.0315-4.3856 11.719 3.3735 4.3529 10.458 6.6968 16.193 5.0226l20.916-7.0316s-17.88-13.059-31.374-10.045z" fill="url(#c)" opacity=".3"/>
<path d="m48.205 37.787c-1.8887-2.342-4.4387-4.0711-7.3235-4.9659-2.8848-0.8947-5.9731-0.9145-8.8693-0.0566l-20.916 6.6967-6.747 11.719 37.783 6.3618 6.747-12.054c1.3494-2.3439 1.0121-5.0226-0.6747-7.7013z" fill="url(#b)"/>
<path d="m41.458 49.506c-1.8887-2.342-4.4387-4.0711-7.3235-4.9659-2.8848-0.8947-5.9731-0.9145-8.8692-0.0566l-20.916 6.6967s17.88 13.393 31.711 10.045l1.0121-0.3348c5.7349-1.6742 7.759-7.0316 4.3855-11.384z" fill="url(#a)"/>
<defs>
<linearGradient id="d" x1="12.277" x2="54.156" y1="12.004" y2="32.508" gradientUnits="userSpaceOnUse">
<stop stop-color="#76B3E1" offset=".1"/>
<stop stop-color="#DCF2FD" offset=".3"/>
<stop stop-color="#76B3E1" offset="1"/>
</linearGradient>
<linearGradient id="c" x1="35.318" x2="28.064" y1="21.916" y2="46.255" gradientUnits="userSpaceOnUse">
<stop stop-color="#76B3E1" offset="0"/>
<stop stop-color="#4377BB" offset=".5"/>
<stop stop-color="#1F3B77" offset="1"/>
</linearGradient>
<linearGradient id="b" x1="9.2072" x2="51.478" y1="32.496" y2="61.452" gradientUnits="userSpaceOnUse">
<stop stop-color="#315AA9" offset="0"/>
<stop stop-color="#518AC8" offset=".5"/>
<stop stop-color="#315AA9" offset="1"/>
</linearGradient>
<linearGradient id="a" x1="28.369" x2="11.468" y1="35.945" y2="98.389" gradientUnits="userSpaceOnUse">
<stop stop-color="#4377BB" offset="0"/>
<stop stop-color="#1A336B" offset=".5"/>
<stop stop-color="#1A336B" offset="1"/>
</linearGradient>
</defs>
</svg>
