<svg width="50" height="70" viewBox="0 0 50 70" fill="none" xmlns="http://www.w3.org/2000/svg">
<path d="M10.2413 51.86L9.00128 18.8401C8.98257 18.3157 9.1695 17.8047 9.5222 17.4161C9.87491 17.0275 10.3655 16.7921 10.8893 16.7601L38.9692 15.0041C39.2435 14.9866 39.5186 15.0256 39.7773 15.1186C40.036 15.2116 40.2728 15.3567 40.4732 15.5449C40.6736 15.7331 40.8333 15.9604 40.9423 16.2128C41.0513 16.4652 41.1075 16.7372 41.1072 17.0121V52.99C41.1069 53.2616 41.0516 53.5304 40.9447 53.7801C40.8378 54.0298 40.6814 54.2552 40.485 54.4429C40.2886 54.6305 40.0562 54.7764 39.8019 54.8718C39.5475 54.9672 39.2765 55.0101 39.0052 54.998L12.1613 53.792C11.657 53.7693 11.1796 53.5578 10.824 53.1996C10.4683 52.8413 10.2603 52.3625 10.2413 51.858V51.86Z" fill="#FF4785"/>
<path fill-rule="evenodd" clip-rule="evenodd" d="M36.7611 15.1422L32.8972 15.3822L32.7092 19.9161C32.7069 19.9729 32.7207 20.0291 32.7491 20.0783C32.7774 20.1274 32.8192 20.1675 32.8695 20.1939C32.9197 20.2203 32.9765 20.2319 33.033 20.2273C33.0896 20.2228 33.1438 20.2022 33.1892 20.1681L34.9492 18.8321L36.4371 20.0041C36.4821 20.0397 36.5362 20.0616 36.5932 20.0674C36.6502 20.0731 36.7077 20.0624 36.7588 20.0366C36.8099 20.0107 36.8526 19.9707 36.8817 19.9214C36.9108 19.872 36.9252 19.8154 36.9231 19.7581L36.7631 15.1422H36.7611ZM33.7532 30.3221C33.0472 30.8721 27.7752 31.2461 27.7752 30.4641C27.8872 27.4781 26.5512 27.3481 25.8072 27.3481C25.1032 27.3481 23.9152 27.5601 23.9152 29.1601C23.9152 30.7901 25.6512 31.7101 27.6892 32.7901C30.5832 34.3241 34.0892 36.1821 34.0892 40.8541C34.0892 45.334 30.4492 47.806 25.8092 47.806C21.0192 47.806 16.8332 45.868 17.3052 39.1501C17.4912 38.3621 23.5812 38.5501 23.5812 39.1501C23.5052 41.9221 24.1372 42.7381 25.7332 42.7381C26.9592 42.7381 27.5152 42.0621 27.5152 40.9261C27.5152 39.2041 25.7072 38.1881 23.6252 37.0201C20.8072 35.4381 17.4912 33.5761 17.4912 29.3021C17.4912 25.0381 20.4232 22.1941 25.6592 22.1941C30.8952 22.1941 33.7532 24.9941 33.7532 30.3221V30.3221Z" fill="white"/>
</svg>
