<svg width="60" height="70" viewBox="0 0 60 70" fill="none" xmlns="http://www.w3.org/2000/svg">
<path fill-rule="evenodd" clip-rule="evenodd" d="M50.0361 28.1182C50.0361 20.0553 45.7166 15.0157 37.0776 13C41.3971 16.0236 43.0171 19.5511 41.9371 23.5828C41.321 25.883 39.5331 27.5269 37.5538 29.3468C34.3298 32.3112 30.5984 35.7422 30.5984 43.2364C30.5984 51.2992 34.9179 56.3385 43.5568 58.3542C39.2373 55.3307 37.6176 51.8032 38.6976 47.7717C39.3138 45.4715 41.1017 43.8273 43.0806 42.0075C46.3046 39.043 50.0361 35.612 50.0361 28.1179V28.1182Z" fill="url(#paint0_linear_1508_358)"/>
<path fill-rule="evenodd" clip-rule="evenodd" d="M9 28.1182C9 20.0553 13.3195 15.0157 21.9584 13C17.639 16.0236 16.0192 19.5511 17.099 23.5828C17.7151 25.883 19.503 27.5269 21.4822 29.3468C24.7062 32.3112 28.4377 35.7422 28.4377 43.2364C28.4377 51.2992 24.1182 56.3385 15.4792 58.3542C19.7987 55.3307 21.4184 51.8032 20.3387 47.7717C19.7226 45.4715 17.9347 43.8273 15.9554 42.0075C12.7315 39.043 9 35.612 9 28.1179V28.1182Z" fill="url(#paint1_linear_1508_358)"/>
<defs>
<linearGradient id="paint0_linear_1508_358" x1="69.4715" y1="11.3202" x2="34.9146" y2="75.5368" gradientUnits="userSpaceOnUse">
<stop offset="0.31771" stop-color="#C100E0"/>
<stop offset="0.875" stop-color="#0042EB"/>
</linearGradient>
<linearGradient id="paint1_linear_1508_358" x1="-10.4377" y1="11.3202" x2="24.1201" y2="75.5368" gradientUnits="userSpaceOnUse">
<stop offset="0.31771" stop-color="#C100E0"/>
<stop offset="0.875" stop-color="#0042EB"/>
</linearGradient>
</defs>
</svg>
