<svg width="60" height="70" viewBox="0 0 60 70" fill="none" xmlns="http://www.w3.org/2000/svg">
<path fill-rule="evenodd" clip-rule="evenodd" d="M50 28.4074C50 20.3086 45.7481 15.2469 37.2444 13.2222C41.4963 16.2593 43.0907 19.8025 42.0278 23.8518C41.4213 26.1622 39.6614 27.8136 37.7132 29.6414C34.5397 32.6191 30.8667 36.0653 30.8667 43.5926C30.8667 51.6913 35.1185 56.7531 43.6222 58.7777C39.3704 55.7407 37.7759 52.1975 38.8389 48.1481C39.4454 45.8377 41.2053 44.1864 43.1535 42.3585C46.327 39.3809 50 35.9346 50 28.4074Z" fill="url(#paint0_linear_1506_34)"/>
<path fill-rule="evenodd" clip-rule="evenodd" d="M9.00001 28.4074C9.00002 20.3086 13.2519 15.2469 21.7556 13.2222C17.5037 16.2593 15.9093 19.8025 16.9722 23.8518C17.5787 26.1622 19.3386 27.8136 21.2868 29.6414C24.4603 32.6191 28.1333 36.0653 28.1333 43.5926C28.1333 51.6913 23.8815 56.7531 15.3778 58.7777C19.6296 55.7407 21.2241 52.1975 20.1611 48.1481C19.5546 45.8377 17.7947 44.1864 15.8466 42.3585C12.673 39.3809 9.00001 35.9346 9.00001 28.4074Z" fill="url(#paint1_linear_1506_34)"/>
<defs>
<linearGradient id="paint0_linear_1506_34" x1="69.1333" y1="11.535" x2="34.0389" y2="75.4454" gradientUnits="userSpaceOnUse">
<stop offset="0.317708" stop-color="#DB00FF"/>
<stop offset="0.875" stop-color="#0047FF"/>
</linearGradient>
<linearGradient id="paint1_linear_1506_34" x1="-10.1333" y1="11.535" x2="24.9612" y2="75.4454" gradientUnits="userSpaceOnUse">
<stop offset="0.317708" stop-color="#DB00FF"/>
<stop offset="0.875" stop-color="#0047FF"/>
</linearGradient>
</defs>
</svg>
