<svg width="60" height="70" viewBox="0 0 60 70" fill="none" xmlns="http://www.w3.org/2000/svg">
<rect x="15" y="30" width="32" height="22" fill="white"/>
<path fill-rule="evenodd" clip-rule="evenodd" d="M12.425 16H47.575C48.362 16 49 16.638 49 17.425V52.575C49 53.362 48.362 54 47.575 54H12.425C11.638 54 11 53.362 11 52.575V17.425C11 16.638 11.638 16 12.425 16ZM32.124 36.2166V33.1H18.6V36.2166H23.4283V50.0933H27.272V36.2166H32.124ZM33.6564 49.7269C34.2762 50.0429 35.0093 50.2799 35.8555 50.4379C36.7019 50.5959 37.5939 50.675 38.5316 50.675C39.4455 50.675 40.3136 50.588 41.1361 50.4143C41.9585 50.2405 42.6796 49.954 43.2995 49.555C43.9193 49.156 44.41 48.6347 44.7716 47.9907C45.1332 47.3468 45.3139 46.5508 45.3139 45.6027C45.3139 44.9154 45.2106 44.3131 45.004 43.7955C44.7975 43.278 44.4995 42.8178 44.11 42.4148C43.7207 42.0119 43.2538 41.6504 42.7094 41.3305C42.165 41.0106 41.5513 40.7083 40.8679 40.4239C40.3672 40.2184 39.9182 40.0189 39.5209 39.8254C39.1235 39.6319 38.7858 39.4343 38.5077 39.2329C38.2296 39.0314 38.0151 38.8181 37.8641 38.5929C37.7131 38.3678 37.6376 38.1129 37.6376 37.8285C37.6376 37.5678 37.7051 37.3328 37.8402 37.1235C37.9754 36.914 38.166 36.7343 38.4124 36.5842C38.6588 36.4341 38.9606 36.3176 39.3183 36.2346C39.6758 36.1517 40.0732 36.1102 40.5102 36.1102C40.8282 36.1102 41.1639 36.1339 41.5175 36.1812C41.8711 36.2287 42.2267 36.3018 42.5843 36.4004C42.9419 36.4992 43.2896 36.6236 43.6274 36.7739C43.9651 36.924 44.2769 37.0977 44.5631 37.2952V33.7518C43.9829 33.5306 43.3492 33.3666 42.6617 33.26C41.9744 33.1533 41.1857 33.1 40.2956 33.1C39.3898 33.1 38.5316 33.1968 37.721 33.3904C36.9105 33.5839 36.1973 33.8862 35.5814 34.297C34.9655 34.7078 34.4788 35.2312 34.1212 35.8671C33.7636 36.5032 33.5848 37.2636 33.5848 38.1484C33.5848 39.2784 33.9126 40.2422 34.5682 41.0401C35.2239 41.8381 36.2191 42.5136 37.5541 43.0667C38.0787 43.2801 38.5673 43.4893 39.0203 43.6948C39.4732 43.9002 39.8646 44.1136 40.1943 44.3347C40.5241 44.556 40.7844 44.7968 40.9751 45.0576C41.1659 45.3183 41.2613 45.6146 41.2613 45.9465C41.2613 46.1914 41.2016 46.4186 41.0824 46.6279C40.9631 46.8373 40.7824 47.019 40.54 47.173C40.2977 47.3271 39.9958 47.4476 39.6342 47.5344C39.2726 47.6214 38.8494 47.6648 38.3647 47.6648C37.5382 47.6648 36.7197 47.5207 35.9091 47.2323C35.0987 46.944 34.3477 46.5114 33.6564 45.9346V49.7269Z" fill="#3178C6"/>
</svg>
