<svg width="60" height="70" viewBox="0 0 60 70" fill="none" xmlns="http://www.w3.org/2000/svg">
<path d="M30 9L52 21.7485V47.2515L30 60L8 47.2515V21.7485L30 9Z" fill="white"/>
<path d="M48.7684 46.6825L30.7896 57V48.966L41.9918 42.7133L48.7684 46.6825ZM50 45.5527V23.9793L43.4237 27.8349V41.7031L50 45.5527ZM11.2316 46.6825L29.2104 57V48.966L18.0024 42.7133L11.2316 46.6825ZM10 45.5527V23.9793L16.5763 27.8349V41.7031L10 45.5527ZM10.772 22.5805L29.2104 12V19.765L17.3954 26.3584L17.3011 26.4122L10.772 22.5805ZM49.2281 22.5805L30.7896 12V19.765L42.6046 26.3524L42.6989 26.4062L49.2281 22.5805Z" fill="#8ED6FB"/>
<path d="M29.2 47L18 40.826V28.6038L29.2 35.0828V47ZM30.8 47L42 40.832V28.6038L30.8 35.0828V47ZM18.7582 27.1919L30 21L41.2418 27.1919L30 33.6949L18.7582 27.1919Z" fill="#1C78C0"/>
</svg>
